<svg version="1.2" xmlns="http://www.w3.org/2000/svg" viewBox="0 0 960 540" width="960" height="540">
	<title>새 프로젝트</title>
	<style>
		.s0 { fill: #000000 } 
	</style>
	<path id="yunjihwa" class="s0" aria-label="yunjihwa"  d="m31.6 298.5q0-11.7 14.6-27.4 14.8-15.7 30-25.8 15.4-10.3 19.3-10.3 3.9 0 5.9 5.6 2.2 5.6 2.2 9.8 0 3.9-0.6 5.3-0.2 1.4-0.8 1.9-0.3 0.6-1.4 1.4-0.8 0.9-2 2-0.8 0.8-9.2 10.6-8.4 9.6-9.5 11.2-0.9 1.4-0.9 4 0 2.2 2 2.2 2 0 3.4-1.1 10.3-6.5 47.3-36.7 7.5-5.3 10.1-5.3 2.5 0 5 2.5 2.8 2.2 2.8 3.6 0 8.2-17.6 33.4-17.4 24.9-43.2 58.5-25.7 33.3-34.1 45.9-8.4 12.6-16.3 12.6-3.9 0-7.8-3.9-3.9-4.2-3.9-9.8 0-5.9 0.8-10.7 0.9-5 5.3-12.8 4.5-7.9 11.8-16.8 7.3-9.3 12.9-16 5.9-7 13.1-15.1 7.6-8.1 8.4-9.3 1.2-1.4 1.2-2.2 0-0.8-0.9-0.8-0.5 0-12.9 6.7-12 6.7-19.8 6.7-7.6 0-11.5-7.6-3.7-7.5-3.7-12.3zm242-16.8q3.9 0 3.9 4.2 0 4.2-12.3 14.9-12.4 10.3-29.4 19.3-16.8 8.9-27.8 8.9-13.7 0-13.7-14.8 0-3.6 2.8-7.8 2.8-4.5 2.8-5.1 0-1.7-1.9-1.7-2 0-2.8 0.3-0.6 0.3-9.6 5.6-25.4 15.7-32.4 15.7-7 0-12.4-4.5-5-4.7-5-10.6 0-11.8 8.4-24.1 8.4-12.3 19.3-20.7 10.9-8.4 20.2-13.7 9.5-5.4 12.9-5.4 3.3 0 8.4 4.8 5 4.8 5 9.2 0 4.2-3.1 6.8-20.7 18.2-20.7 25.2 0 3.6 3.4 3.6 8.1 0 23.2-13.2 15.1-13.4 24.6-24.3 7.6-7.9 13.2-7.9 5.6 0 10.9 4.2 5.6 4 5.6 7.3 0 3.1-1.4 5.6-1.4 2.3-11.2 14.9-9.8 12.3-12.6 15.6-2.5 3.4-2.5 5.6 0 2.3 1.1 2.3 1.1 0 2 0 1.1-0.3 7-4.5 6.1-4.2 12.9-9.2 8.6-6.5 11.2-6.5zm94 29.7l8.7-3.4q3.9 0 3.9 3.1 0 7.3-12 14-11.8 6.5-22.7 6.5-10.6 0-16.5-4.5-5.9-4.8-5.9-14.3 0-9.5 10.9-23.5 1.4-1.4 1.4-2.3 0-1.1-1.1-1.1-1.1 0-1.9 0.6-0.9 0.5-12.1 7.5-26.9 17.1-38.3 23.8-4.8 2.6-9 2.6-4.2 0-9.2-5.4-5.1-5.3-5.1-10.6 0-11.2 31.7-40.9 31.6-29.9 42.8-29.9 4.2 0.5 7.3 4.7 3.1 4.2 3.1 10.1 0 5.6-4.2 12.3-6.2 9.8-10.1 13.7-3.7 3.7-3.7 4.8 0 0.8 0.9 0.8 0.8 0 2.2-0.8 1.7-1.1 26.6-17.4 25.2-16.5 28.3-18.2 3.1-1.9 6.7-1.9 3.7 0 9.5 3.6 5.9 3.4 5.9 9.3 0 5.8-10.3 17.3-10.1 11.5-20.5 22.1-10.3 10.7-10.3 15.2 0 2.2 3 2.2zm80.1-73.1l14.3-5.9q4.8 0 8.4 5.4 3.6 5.3 3.6 8.4 0 3-5.8 15.4-5.9 12-15.7 29.4-9.5 17.3-23 36.9-13.1 19.6-27.1 36.4-14 16.5-29.7 27.5-15.7 10.9-28.9 10.9-6.1 0-11.7-1.1-5.6-1.4-11.2-6.5-5.6-5-5.6-12.6 0-7.5 5.6-19 5.6-11.8 15.1-20.2 2.8-2.2 5-2.2 2.3 0 3.7 1.1 1.4 1.1 1.4 2.8 0 1.4-7.6 14.3-7.3 12.9-7.3 16.8 0 0.8 0.6 0.8 4.5 0 49.3-52.6 45.1-52.9 45.1-58.3 0-2.2-2.3-2.2-1.4 0-6.1 2.2-4.8 2.3-6.8 2.3-1.9 0-4.2-1.7-2.2-1.7-2.2-3.9 0-3.4 14.3-10.9 14.5-7.6 28.8-13.5zm52.9-59.6q10.7 0 10.7 12 0 11.8-10.9 22.4-10.7 10.7-19.4 10.7-8.6 0-11.4-4.5-2.8-4.8-2.8-10.4 0-5.9 10-17.9 10.1-12.3 23.8-12.3zm-44.8 138.3q0 6.2 4.2 10.4 4.2 3.9 11 3.9 6.7 0 22.9-16.3 16.3-16.2 28.9-33.8 12.6-17.7 12.6-22.4 0-14.9-12.6-14.9-20.2 3.7-43.7 28.6-23.3 24.9-23.3 44.5zm84.6-82q-4.8 0-7.6-3.4-2.8-3.4-3.3-6.7l-0.3-3.1q1.4-13.4 12-20.4 10.7-7 18.5-7 11.5 0 11.5 11.4 0 7.3-8.7 17.7-8.7 10.1-22.1 11.5zm119 75.8q-9.8 7.6-23.8 14.6-13.7 7-23.2 7-9.3 0-14.9-5.6-5.6-5.6-5.6-13.7 0-13.5 19.3-36.1 1.7-1.7 1.7-2.6 0-1.1-0.5-1.1-0.6 0-4.2 1.4-3.4 1.1-19.1 12.9-15.7 11.5-30.5 24.6-14.8 12.9-21.3 12.9-6.1 0-9.2-5.3-2.8-5.3-2.8-12 0-20.8 32.2-63 32.5-42.3 67.7-75.4 35.3-33.3 45.1-33.3 4.8 0 9 4.2 4.5 3.9 4.5 10.9 0 6.8-16.8 30.3-16.8 23.5-37.6 49.5-26 32.5-26 35.3 0 1.1 1.1 1.1 1.1 0 9.5-4.4 8.4-4.8 18.2-8.7 9.8-4.2 13.5-4.8 3.9-0.8 8.9-0.8 5.4 0 10.4 2.2 5.3 2.3 5.3 6.7 0 4.2-20.4 27.8-20.2 23.2-20.2 26.6 0 3 2.8 3 5.9 0 23-12.3 6.4-4.5 7.5-5 1.2-0.6 2.6-0.6 3.9 0 3.9 3.9 0 2.3-10.1 9.8zm86.2-83.4l-1.4 6.4q0 0.6 1.4 4 1.7 3 1.4 5.8 0 2.8-9.5 13.2-9.5 10.4-9.5 12 0 1.7 0.6 1.7 3 0 33.6-22.9 7-5.4 15.1-5.4 8.4 0 8.4 7.9 0 12.3-16.5 36.9-2.6 4-3.7 5.4-0.8 1.4-0.8 2.8 0 1.1 0.8 1.1 0.9 0 3.4-1.4 2.5-1.7 35.3-30.8 33-29.4 41.1-35.3 8.1-5.9 11.8-5.9 3.6 0 5.9 1.7 2.5 1.4 2.5 4.2 0 2.8-7.9 7.8-7.8 4.8-28.8 22.7-21 17.9-41.4 36.1-20.5 18.2-23.3 20.5-17.3 14.5-30.2 14.5-7.3 0-11.5-4.2-3.9-4.4-3.9-12 0-7.8 7-19 7-11.2 7-12.4 0-1.1-0.9-1.1-2.2 0.9-10.3 6.5-23.5 16.2-34.5 23.2-10.9 7-14.5 7-3.7 0-7.9-5.3-3.9-5.3-3.9-9.3 0-10.3 15.4-29.9 15.7-19.6 35-35.3 19.3-15.7 29.1-15.7 5.6 0.6 5.6 4.5zm151 85.4q0 1.4 1.9 2 2 0 13.5-7.9 11.7-8.1 13.1-8.9 1.7-0.9 3.1-0.9 3.9 0 3.9 3.9 0 3.7-19.9 16.6-19.6 12.8-27.7 12.8-3.3 0-7.3-2.8-3.6-2.8-3.6-6.4 0-3.9 2-8.4 1.9-4.5 1.9-5.9 0-1.7-0.8-1.7-0.9 0-1.7 0.6-27.2 20.4-40 20.4-7.3 0-11.5-5.3-4.2-5.3-5.1-10.6l-0.5-5.3q0-9.3 7-21.3 7.3-12.3 18.7-23.3 11.8-11.2 28.6-18.7 17.1-7.6 34.7-7.6 9.5 0 17.7 5.1 8.4 5 8.4 11.7 0 6.7-13.2 8.1-9.8 2.3-32.5 16.3-22.4 13.7-22.4 21 0 3.1 3.1 3.1 5.6 0 26.3-16 21-16 25.2-16 4.2 0 4.2 5.1 0 3.6-2.8 7-2.5 3.1-3.6 4.5-2.3 2.8-11.5 12.6-9.2 9.5-9.2 16.2z"/>
</svg>